<?xml version="1.0" encoding="UTF-8" standalone="yes"?>
<svg xmlns="http://www.w3.org/2000/svg" viewBox="0 0 100 100" width="100" height="100" fill="#000000">
  <path d="M 36.384766 11.111328 C 35.995844 11.085078 35.611781 11.288453 35.425781 11.658203 C 35.176781 12.151203 35.374188 12.752953 35.867188 13.001953 L 73.464844 31.984375 L 24.564453 31.984375 C 19.833453 31.984375 15.984375 35.833453 15.984375 40.564453 L 15.984375 71.404297 C 15.984375 76.135297 19.833453 79.984375 24.564453 79.984375 L 76.404297 79.984375 C 81.135297 79.984375 84.984375 76.135297 84.984375 71.404297 L 84.984375 40.564453 C 84.984375 36.406453 82.009172 32.930391 78.076172 32.150391 C 77.997172 32.065391 77.908828 31.987641 77.798828 31.931641 L 36.767578 11.216797 C 36.644328 11.154547 36.514406 11.120078 36.384766 11.111328 z M 24.564453 33.984375 L 76.404297 33.984375 C 80.032297 33.984375 82.984375 36.936453 82.984375 40.564453 L 82.984375 71.404297 C 82.984375 75.032297 80.032297 77.984375 76.404297 77.984375 L 24.564453 77.984375 C 20.936453 77.984375 17.984375 75.032297 17.984375 71.404297 L 17.984375 40.564453 C 17.984375 36.936453 20.936453 33.984375 24.564453 33.984375 z M 21.484375 39.984375 C 21.208375 39.984375 20.984375 40.208375 20.984375 40.484375 L 20.984375 50.484375 C 20.984375 50.760375 21.208375 50.984375 21.484375 50.984375 L 77.484375 50.984375 C 77.760375 50.984375 77.984375 50.760375 77.984375 50.484375 L 77.984375 41.484375 C 77.984375 41.208375 77.761375 40.984375 77.484375 40.984375 C 77.208375 40.984375 76.984375 41.208375 76.984375 41.484375 L 76.984375 49.984375 L 62.984375 49.984375 L 62.984375 44.484375 C 62.984375 44.208375 62.760375 43.984375 62.484375 43.984375 C 62.208375 43.984375 61.984375 44.208375 61.984375 44.484375 L 61.984375 49.984375 L 21.984375 49.984375 L 21.984375 40.984375 L 74.484375 40.984375 C 74.760375 40.984375 74.984375 40.760375 74.984375 40.484375 C 74.984375 40.208375 74.760375 39.984375 74.484375 39.984375 L 21.484375 39.984375 z M 25.484375 53.984375 C 23.554375 53.984375 21.984375 55.554375 21.984375 57.484375 C 21.984375 59.414375 23.555375 60.984375 25.484375 60.984375 C 27.414375 60.984375 28.984375 59.414375 28.984375 57.484375 C 28.984375 55.554375 27.414375 53.984375 25.484375 53.984375 z M 33.484375 53.984375 C 31.554375 53.984375 29.984375 55.554375 29.984375 57.484375 C 29.984375 59.414375 31.554375 60.984375 33.484375 60.984375 C 35.414375 60.984375 36.984375 59.414375 36.984375 57.484375 C 36.984375 55.554375 35.414375 53.984375 33.484375 53.984375 z M 25.484375 54.984375 C 26.862375 54.984375 27.984375 56.106375 27.984375 57.484375 C 27.984375 58.862375 26.862375 59.984375 25.484375 59.984375 C 24.106375 59.984375 22.984375 58.862375 22.984375 57.484375 C 22.984375 56.106375 24.106375 54.984375 25.484375 54.984375 z M 33.484375 54.984375 C 34.862375 54.984375 35.984375 56.106375 35.984375 57.484375 C 35.984375 58.862375 34.863375 59.984375 33.484375 59.984375 C 32.106375 59.984375 30.984375 58.862375 30.984375 57.484375 C 30.984375 56.106375 32.106375 54.984375 33.484375 54.984375 z M 69.484375 55.984375 C 64.797375 55.984375 60.984375 59.797375 60.984375 64.484375 C 60.984375 69.171375 64.797375 72.984375 69.484375 72.984375 C 74.171375 72.984375 77.984375 69.171375 77.984375 64.484375 C 77.984375 59.797375 74.171375 55.984375 69.484375 55.984375 z M 41.484375 56.984375 A 1.5 1.5 0 0 0 39.984375 58.484375 A 1.5 1.5 0 0 0 41.484375 59.984375 A 1.5 1.5 0 0 0 42.984375 58.484375 A 1.5 1.5 0 0 0 41.484375 56.984375 z M 69.484375 56.984375 C 73.620375 56.984375 76.984375 60.348375 76.984375 64.484375 C 76.984375 68.620375 73.620375 71.984375 69.484375 71.984375 C 65.348375 71.984375 61.984375 68.620375 61.984375 64.484375 C 61.984375 60.348375 65.348375 56.984375 69.484375 56.984375 z M 69.484375 58.9375 C 66.425375 58.9375 63.9375 61.425375 63.9375 64.484375 C 63.9375 67.542375 66.425375 70.03125 69.484375 70.03125 C 70.667375 70.03125 71.795047 69.66375 72.748047 68.96875 C 72.971047 68.80575 73.020422 68.494484 72.857422 68.271484 C 72.695422 68.047484 72.382156 67.998109 72.160156 68.162109 C 71.379156 68.731109 70.454375 69.03125 69.484375 69.03125 C 66.977375 69.03125 64.9375 66.992328 64.9375 64.486328 C 64.9375 61.979328 66.977375 59.939453 69.484375 59.939453 C 71.991375 59.939453 74.029297 61.979328 74.029297 64.486328 C 74.029297 64.762328 74.253297 64.986328 74.529297 64.986328 C 74.805297 64.986328 75.029297 64.762328 75.029297 64.486328 C 75.030297 61.426328 72.543375 58.9375 69.484375 58.9375 z M 74.027344 66.257812 C 73.833047 66.244875 73.640625 66.34675 73.546875 66.53125 C 73.416875 66.78825 73.261938 67.034719 73.085938 67.261719 C 72.917937 67.480719 72.957781 67.793891 73.175781 67.962891 C 73.266781 68.032891 73.374469 68.066406 73.480469 68.066406 C 73.630469 68.066406 73.778953 68.000047 73.876953 67.873047 C 74.090953 67.596047 74.2785 67.296422 74.4375 66.982422 C 74.5625 66.735422 74.46475 66.435547 74.21875 66.310547 C 74.15725 66.279547 74.092109 66.262125 74.027344 66.257812 z M 22.484375 66.984375 C 22.208375 66.984375 21.984375 67.208375 21.984375 67.484375 L 21.984375 72.484375 C 21.984375 72.760375 22.208375 72.984375 22.484375 72.984375 L 34.484375 72.984375 C 34.760375 72.984375 34.984375 72.760375 34.984375 72.484375 C 34.984375 72.208375 34.760375 71.984375 34.484375 71.984375 L 22.984375 71.984375 L 22.984375 67.984375 L 34.984375 67.984375 L 34.984375 70.484375 C 34.984375 70.760375 35.208375 70.984375 35.484375 70.984375 C 35.760375 70.984375 35.984375 70.760375 35.984375 70.484375 L 35.984375 67.484375 C 35.984375 67.208375 35.761375 66.984375 35.484375 66.984375 L 22.484375 66.984375 z"/>
</svg>
